<?xml version="1.0" standalone="no"?>
<!DOCTYPE svg PUBLIC "-//W3C//DTD SVG 20010904//EN"
 "http://www.w3.org/TR/2001/REC-SVG-20010904/DTD/svg10.dtd">
<svg version="1.0" xmlns="http://www.w3.org/2000/svg"
 width="288.000000pt" height="75.000000pt" viewBox="0 0 288.000000 75.000000"
 preserveAspectRatio="xMidYMid meet">
<metadata>
Created by potrace 1.16, written by Peter Selinger 2001-2019
</metadata>
<g transform="translate(0.000000,75.000000) scale(0.100000,-0.100000)"
fill="#000000" stroke="none">
<path d="M473 730 c-96 -20 -189 -94 -240 -192 -26 -49 -28 -62 -28 -163 0
-106 1 -112 34 -173 40 -74 94 -124 171 -160 47 -22 69 -26 150 -27 82 0 103
4 152 27 286 134 289 534 5 663 -64 29 -172 41 -244 25z m184 -205 c112 -66
111 -237 -2 -303 -52 -30 -149 -27 -192 4 -91 67 -106 181 -36 265 54 64 153
79 230 34z"/>
<path d="M1195 536 c-55 -24 -65 -52 -65 -177 l0 -111 34 -34 c34 -34 35 -34
124 -34 92 0 114 8 92 35 -9 11 -34 15 -90 15 -104 0 -110 7 -110 131 0 52 4
99 8 105 15 23 53 34 121 34 72 0 92 10 71 35 -16 19 -143 20 -185 1z"/>
<path d="M1466 535 c-3 -9 -6 -90 -6 -180 0 -134 3 -165 15 -175 31 -25 36 3
33 186 -3 156 -5 179 -19 182 -9 2 -19 -4 -23 -13z"/>
<path d="M1663 535 c-55 -24 -68 -56 -68 -171 0 -158 24 -184 168 -184 63 0
86 4 90 14 10 26 -16 36 -93 36 -89 0 -110 14 -110 73 l0 37 99 0 c75 0 100 3
104 14 11 27 -17 36 -110 36 l-93 0 0 33 c0 59 18 71 112 76 83 3 106 14 86
38 -14 18 -144 16 -185 -2z"/>
<path d="M1974 540 c-35 -14 -54 -50 -54 -103 0 -38 5 -53 25 -72 21 -22 33
-25 93 -25 86 0 105 -12 100 -65 l-3 -40 -102 -5 c-56 -3 -105 -8 -108 -12 -4
-4 -5 -14 -2 -23 5 -12 26 -15 112 -15 99 0 107 2 130 25 35 34 35 112 1 152
-21 24 -32 28 -107 33 l-84 5 -3 38 c-5 60 7 67 115 67 77 0 95 3 100 16 3 9
0 20 -8 25 -18 11 -177 11 -205 -1z"/>
<path d="M2314 536 c-55 -24 -64 -48 -64 -168 0 -166 19 -188 164 -188 86 0
108 9 86 35 -9 11 -34 15 -90 15 -104 0 -110 7 -110 131 0 52 4 99 8 105 15
23 53 34 121 34 72 0 92 10 71 35 -16 19 -143 20 -186 1z"/>
<path d="M2620 533 c-51 -27 -70 -72 -70 -171 0 -143 32 -182 147 -182 115 0
143 36 143 182 0 101 -10 130 -52 161 -38 29 -123 33 -168 10z m145 -58 c23
-22 25 -32 25 -115 0 -113 -12 -130 -92 -130 -59 0 -70 5 -87 37 -14 27 -15
152 -1 188 19 49 114 62 155 20z"/>
</g>
</svg>
